# xmcd CD database file
#
# Track frame offsets:
#	150
#	13932
#	29405
#	44175
#	58150
#	72860
#	87727
#	102330
#	116452
#	131545
#	143950
#	155892
#	166492
#	179809
#	194695
#	209780
#	220550
#	233920
#	254672
#	267715
#	286025
#	299090
#	312417
#
# Disc length: 4338 seconds
#
# Revision: 0
# Processed by: cddbd v1.4PL0 Copyright (c) Steve Scherf et al.
# Submitted via: CDex 1.50Beta7
#
DISCID=8c10f017
DTITLE=Rex Stewart - Take It Easy
DYEAR=1900
DGENRE=Jazz
TTITLE0=Boy Meets Horn
TTITLE1=Linger Awhile
TTITLE2=Subtle Slough
TTITLE3=Take It Easy
TTITLE4=The Stampede
TTITLE5=Singing The Blues
TTITLE6=Primitive
TTITLE7=Tough Truckin'
TTITLE8=Kissin' My Baby Goodnight
TTITLE9=Braggin' In Brass
TTITLE10=San Juan Hill
TTITLE11=Finesse
TTITLE12=Tootin' Through The Roof
TTITLE13=Morning Glory
TTITLE14=Dusk
TTITLE15=Emancipation Celebration
TTITLE16=In A Mellotone
TTITLE17=Swamp Mist
TTITLE18=Jug Blues
TTITLE19=Mobile Bay
TTITLE20=Be Bop Boogie
TTITLE21=Confessin'
TTITLE22=Night And Day
EXTD=
EXTT0=
EXTT1=
EXTT2=
EXTT3=
EXTT4=
EXTT5=
EXTT6=
EXTT7=
EXTT8=
EXTT9=
EXTT10=
EXTT11=
EXTT12=
EXTT13=
EXTT14=
EXTT15=
EXTT16=
EXTT17=
EXTT18=
EXTT19=
EXTT20=
EXTT21=
EXTT22=
PLAYORDER=
